<?xml version="1.0" standalone="no"?>
<!DOCTYPE svg PUBLIC "-//W3C//DTD SVG 20010904//EN"
 "http://www.w3.org/TR/2001/REC-SVG-20010904/DTD/svg10.dtd">
<svg version="1.0" xmlns="http://www.w3.org/2000/svg"
 width="50.000000pt" height="50.000000pt" viewBox="0 0 50.000000 50.000000"
 preserveAspectRatio="xMidYMid meet">

<g transform="translate(0.000000,50.000000) scale(0.100000,-0.100000)"
fill="#000000" stroke="none">
<path d="M379 435 c-51 -54 -48 -52 -90 -41 -27 7 -51 7 -79 -1 -22 -6 -43 -6
-46 -2 -3 5 -13 9 -22 9 -10 0 -23 9 -30 20 -14 23 -44 26 -62 5 -27 -33 13
-80 50 -57 23 14 50 16 50 4 0 -5 -12 -19 -26 -33 -63 -57 -82 -160 -41 -219
37 -55 81 -75 167 -75 86 0 130 20 167 75 41 59 22 162 -41 219 -42 40 -28 76
21 50 41 -22 82 21 53 56 -18 22 -43 18 -71 -10z m-82 -157 c29 -27 29 -65 1
-95 -27 -29 -65 -29 -95 -1 -29 27 -29 65 -1 95 27 29 65 29 95 1z m-47 -162
c25 0 53 4 64 8 14 7 18 6 14 -5 -11 -35 -145 -35 -156 0 -4 11 0 12 14 5 11
-4 39 -8 64 -8z"/>
<path d="M224 245 c-9 -23 3 -45 25 -45 23 0 41 22 23 28 -7 2 -12 10 -12 18
0 19 -29 18 -36 -1z"/>
</g>
</svg>
